<svg xmlns="http://www.w3.org/2000/svg" version="1.1" xmlns:xlink="http://www.w3.org/1999/xlink" xmlns:svgjs="http://svgjs.com/svgjs" width="1440" height="250" preserveAspectRatio="none" viewBox="0 0 1440 250"><g mask="url(&quot;#SvgjsMask1009&quot;)" fill="none"><rect width="1440" height="250" x="0" y="0" fill="rgba(247, 247, 247, 1)"></rect><path d="M42 250L292 0L485.5 0L235.5 250z" fill="url(#SvgjsLinearGradient1010)"></path><path d="M254.60000000000002 250L504.6 0L654.6 0L404.6 250z" fill="url(#SvgjsLinearGradient1010)"></path><path d="M522.2 250L772.2 0L973.2 0L723.2 250z" fill="url(#SvgjsLinearGradient1010)"></path><path d="M741.8000000000001 250L991.8000000000001 0L1327.8000000000002 0L1077.8000000000002 250z" fill="url(#SvgjsLinearGradient1010)"></path><path d="M1414 250L1164 0L949.5 0L1199.5 250z" fill="url(#SvgjsLinearGradient1011)"></path><path d="M1173.4 250L923.4000000000001 0L569.4000000000001 0L819.4000000000001 250z" fill="url(#SvgjsLinearGradient1011)"></path><path d="M957.8 250L707.8 0L580.3 0L830.3 250z" fill="url(#SvgjsLinearGradient1011)"></path><path d="M708.1999999999999 250L458.19999999999993 0L149.19999999999993 0L399.19999999999993 250z" fill="url(#SvgjsLinearGradient1011)"></path><path d="M1221.239979278556 250L1440 31.23997927855592L1440 250z" fill="url(#SvgjsLinearGradient1010)"></path><path d="M0 250L218.76002072144408 250L 0 31.23997927855592z" fill="url(#SvgjsLinearGradient1011)"></path></g><defs><mask id="SvgjsMask1009"><rect width="1440" height="250" fill="#ffffff"></rect></mask><linearGradient x1="0%" y1="100%" x2="100%" y2="0%" id="SvgjsLinearGradient1010"><stop stop-color="rgba(197, 22, 31, 0.51)" offset="0"></stop><stop stop-opacity="0" stop-color="rgba(197, 22, 31, 0.51)" offset="0.66"></stop></linearGradient><linearGradient x1="100%" y1="100%" x2="0%" y2="0%" id="SvgjsLinearGradient1011"><stop stop-color="rgba(197, 22, 31, 0.51)" offset="0"></stop><stop stop-opacity="0" stop-color="rgba(197, 22, 31, 0.51)" offset="0.66"></stop></linearGradient></defs></svg>