<svg xmlns="http://www.w3.org/2000/svg" version="1.1" xmlns:xlink="http://www.w3.org/1999/xlink" xmlns:svgjs="http://svgjs.com/svgjs" width="1920" height="1080" preserveAspectRatio="none" viewBox="0 0 1920 1080"><g mask="url(&quot;#SvgjsMask1286&quot;)" fill="none"><rect width="1920" height="1080" x="0" y="0" fill="url(#SvgjsRadialGradient1287)"></rect><path d="M0 0L149.77 0L0 298.05z" fill="rgba(255, 255, 255, .1)"></path><path d="M0 298.05L149.77 0L794.75 0L0 667.1700000000001z" fill="rgba(255, 255, 255, .075)"></path><path d="M0 667.1700000000001L794.75 0L919.52 0L0 893.7z" fill="rgba(255, 255, 255, .05)"></path><path d="M0 893.7L919.52 0L1353.43 0L0 1011.6600000000001z" fill="rgba(255, 255, 255, .025)"></path><path d="M1920 1080L1173.5 1080L1920 657.4100000000001z" fill="rgba(0, 0, 0, .1)"></path><path d="M1920 657.4100000000001L1173.5 1080L522.04 1080L1920 610.6300000000001z" fill="rgba(0, 0, 0, .075)"></path><path d="M1920 610.63L522.04 1080L472.4 1080L1920 411.14z" fill="rgba(0, 0, 0, .05)"></path><path d="M1920 411.14L472.39999999999986 1080L464.04999999999984 1080L1920 206.69z" fill="rgba(0, 0, 0, .025)"></path></g><defs><mask id="SvgjsMask1286"><rect width="1920" height="1080" fill="#ffffff"></rect></mask><radialGradient cx="0%" cy="0%" r="2202.91" gradientUnits="userSpaceOnUse" id="SvgjsRadialGradient1287"><stop stop-color="rgba(221, 221, 221, 1)" offset="0"></stop><stop stop-color="rgba(238, 238, 238, 1)" offset="1"></stop></radialGradient></defs></svg>